<svg xmlns="http://www.w3.org/2000/svg" xmlns:xlink="http://www.w3.org/1999/xlink" viewBox="0 0 140.22 116.56"><defs><linearGradient id="Neues_Verlaufsfeld_5" x1="53.09" y1="56.25" x2="102.7" y2="56.25" gradientUnits="userSpaceOnUse"><stop offset="0.2" stop-color="#7a2a90"/><stop offset="0.5" stop-color="#4b57a6"/><stop offset="1" stop-color="#35c6f4"/></linearGradient><linearGradient id="Neues_Verlaufsfeld_5-2" x1="98.79" y1="16.12" x2="98.98" y2="16.12" xlink:href="#Neues_Verlaufsfeld_5"/><linearGradient id="Neues_Verlaufsfeld_5-3" x1="37.53" y1="39.72" x2="102.48" y2="39.72" xlink:href="#Neues_Verlaufsfeld_5"/><linearGradient id="Neues_Verlaufsfeld_5-4" x1="93.52" y1="21.52" x2="114.76" y2="0.28" xlink:href="#Neues_Verlaufsfeld_5"/><linearGradient id="Neues_Verlaufsfeld_5-5" x1="96.04" y1="24.04" x2="117.28" y2="2.8" xlink:href="#Neues_Verlaufsfeld_5"/><linearGradient id="Neues_Verlaufsfeld_5-6" x1="90.73" y1="18.73" x2="111.97" y2="-2.51" xlink:href="#Neues_Verlaufsfeld_5"/><linearGradient id="Neues_Verlaufsfeld_5-7" x1="93.25" y1="21.25" x2="114.49" y2="0.01" xlink:href="#Neues_Verlaufsfeld_5"/><linearGradient id="Neues_Verlaufsfeld_5-8" x1="91.12" y1="19.12" x2="112.36" y2="-2.12" xlink:href="#Neues_Verlaufsfeld_5"/><linearGradient id="Neues_Verlaufsfeld_5-9" x1="92.59" y1="20.59" x2="113.83" y2="-0.65" xlink:href="#Neues_Verlaufsfeld_5"/><linearGradient id="Neues_Verlaufsfeld_5-10" x1="93.93" y1="21.93" x2="115.17" y2="0.69" xlink:href="#Neues_Verlaufsfeld_5"/><linearGradient id="Unbenannter_Verlauf_3" x1="29.14" y1="110.78" x2="29.14" y2="66.59" xlink:href="#Neues_Verlaufsfeld_5"/><linearGradient id="Unbenannter_Verlauf_3-2" x1="11.45" y1="110.78" x2="11.45" y2="66.59" xlink:href="#Neues_Verlaufsfeld_5"/><linearGradient id="Unbenannter_Verlauf_3-3" x1="29.14" y1="77.55" x2="29.14" y2="87.12" xlink:href="#Neues_Verlaufsfeld_5"/><linearGradient id="Unbenannter_Verlauf_3-4" x1="42.23" y1="110.78" x2="42.23" y2="66.59" xlink:href="#Neues_Verlaufsfeld_5"/><linearGradient id="Unbenannter_Verlauf_3-5" x1="62.34" y1="110.78" x2="62.34" y2="66.59" xlink:href="#Neues_Verlaufsfeld_5"/><linearGradient id="Unbenannter_Verlauf_3-6" x1="83.95" y1="110.78" x2="83.95" y2="66.59" xlink:href="#Neues_Verlaufsfeld_5"/><linearGradient id="Unbenannter_Verlauf_3-7" x1="108.2" y1="110.78" x2="108.2" y2="66.59" xlink:href="#Neues_Verlaufsfeld_5"/><linearGradient id="Unbenannter_Verlauf_3-8" x1="130.56" y1="110.78" x2="130.56" y2="66.59" xlink:href="#Neues_Verlaufsfeld_5"/></defs><g id="Ebene_2" data-name="Ebene 2"><g id="Layer_1" data-name="Layer 1"><path d="M102.7,55.18v.27l0,.26c-1,7.59-5,11.25-8.11,13a15.33,15.33,0,0,1-7.07,1.91H53.09V63.78L62.36,59v2.89h25.1v.28l0-.1v-.18h0a6,6,0,0,0,2.55-.83C91.86,60,93,57.92,93.42,54.93a6.83,6.83,0,0,0-2.08-4.51A10.68,10.68,0,0,0,89,48.56,11.16,11.16,0,0,0,86,47.93L84,47.69l11.09-5.78A20.77,20.77,0,0,1,98,44.34,15.24,15.24,0,0,1,102.7,55.18Z" style="fill:url(#Neues_Verlaufsfeld_5)"/><path d="M99,16.25h-.19V16Z" style="fill:url(#Neues_Verlaufsfeld_5-2)"/><path d="M101.23,33a17.59,17.59,0,0,1-8.36,8.81L37.53,70.38V60.43L88.4,34.12a8.32,8.32,0,0,0,4.51-9.8,9,9,0,0,0-9-6.55H62.64v28.1l-7.12,3.68-2.15,1.12V9.05H83.94A18.94,18.94,0,0,1,95.78,13a15.73,15.73,0,0,1,1.5,1.32v3.46H100a17.6,17.6,0,0,1,1.89,4.39A16.71,16.71,0,0,1,101.23,33Z" style="fill:url(#Neues_Verlaufsfeld_5-3)"/><rect x="98.79" y="11.39" width="4.86" height="4.86" style="fill:url(#Neues_Verlaufsfeld_5-4)"/><rect x="106.37" y="9.69" width="4.02" height="4.02" style="fill:url(#Neues_Verlaufsfeld_5-5)"/><rect x="100.54" y="5.16" width="3.77" height="3.77" style="fill:url(#Neues_Verlaufsfeld_5-6)"/><rect x="106.8" y="5.16" width="2.55" height="2.55" style="fill:url(#Neues_Verlaufsfeld_5-7)"/><rect x="107.4" y="0.43" width="2.41" height="2.41" style="fill:url(#Neues_Verlaufsfeld_5-8)"/><rect x="111.47" width="1.71" height="1.71" style="fill:url(#Neues_Verlaufsfeld_5-9)"/><rect x="110.7" y="3.53" width="1.63" height="1.63" style="fill:url(#Neues_Verlaufsfeld_5-10)"/><rect x="98.79" y="11.39" width="4.86" height="4.86" style="fill:url(#Neues_Verlaufsfeld_5-4)"/><path d="M29.14,87.65a4.39,4.39,0,0,1-2.7-.9v18.39h5.41V86.75A4.42,4.42,0,0,1,29.14,87.65Z" style="fill:url(#Unbenannter_Verlauf_3)"/><path d="M13,78.82c5,0,9.14,2.25,9.14,7.14a5.64,5.64,0,0,1-3.5,5.38A6.65,6.65,0,0,1,22.79,99c-.79,4.25-4.33,6.17-9.59,6.17H0V78.82ZM5.75,89H12.9c2.29,0,3.42-.94,3.42-2.48S15.19,83.89,13,83.89H5.75Zm0,11H13c2.63,0,3.88-1.16,3.88-3s-1.36-3.08-4-3.08H5.75Z" style="fill:url(#Unbenannter_Verlauf_3-2)"/><path d="M32.42,82.72A3.13,3.13,0,0,1,29.14,86a3.13,3.13,0,0,1-3.28-3.24C25.86,78.4,32.42,78.4,32.42,82.72Z" style="fill:url(#Unbenannter_Verlauf_3-3)"/><path d="M43.81,81.49v5.18h4.7v4.52H43.77v7c0,1.95,1.09,2.48,2.1,2.48a5.92,5.92,0,0,0,2.26-.45l1.24,4.51a11.54,11.54,0,0,1-3.91.83c-4,.19-7.07-1.58-7.07-7.37v-7H35.08V86.67h3.31V82.09Z" style="fill:url(#Unbenannter_Verlauf_3-4)"/><path d="M58.7,78.82V99.76H71.86v5.38h-19V78.82Z" style="fill:url(#Unbenannter_Verlauf_3-5)"/><path d="M89.12,86.56h5.07v18.58H89.3L89,102.8c-1.24,2-3.91,2.71-5.71,2.75-5.57,0-9.59-3.57-9.59-9.7s4.25-9.78,9.74-9.7c2.33,0,4.51.9,5.49,2.55Zm-10,9.29A4.66,4.66,0,0,0,84,100.74a4.91,4.91,0,1,0,0-9.82A4.69,4.69,0,0,0,79.11,95.85Z" style="fill:url(#Unbenannter_Verlauf_3-6)"/><path d="M112.17,105.14V95.32c0-2.86-1.25-4.32-3.84-4.32a4.3,4.3,0,0,0-4.21,4.55v9.59H98.78V86.56h4.89l.19,2.37a7,7,0,0,1,6-2.82c4.18,0,7.75,2,7.75,9.17v9.86Z" style="fill:url(#Unbenannter_Verlauf_3-7)"/><path d="M126.38,97.62c.26,1.8,2,3.27,5,3.27a7.72,7.72,0,0,0,4.81-1.47l3.05,3.38c-2,2-5.19,2.75-8,2.75-6.73,0-10.41-4-10.41-9.89,0-5.64,3.8-9.59,9.85-9.59,6.32,0,10.45,4,9.29,11.55Zm8.8-4c-.12-2-2.18-3-4.44-3a4.23,4.23,0,0,0-4.36,3Z" style="fill:url(#Unbenannter_Verlauf_3-8)"/><path d="M45.16,116.36v-6.27h1.38v6.27Z" style="fill:#63459b"/><path d="M49.48,111.33H47.57v-1.24h5.21v1.24H50.87v5H49.48Z" style="fill:#63459b"/><path d="M53.18,113.18h3.36v1.12H53.18Z" style="fill:#63459b"/><path d="M61.65,111.6a2.08,2.08,0,0,0-1.45-.53c-.62,0-1.12.26-1.12.69s.55.68,1.35.75c1.24.11,2.41.59,2.41,2s-1.29,2-2.64,2a3.13,3.13,0,0,1-2.74-1.29l.83-.87a2.5,2.5,0,0,0,1.92.89c.74,0,1.25-.29,1.25-.74s-.41-.77-1.26-.84c-1.33-.13-2.51-.46-2.49-1.94,0-1.24,1.19-1.91,2.48-1.91a2.78,2.78,0,0,1,2.34,1Z" style="fill:#63459b"/><path d="M64.88,114.57c.07.43.48.77,1.2.77a1.89,1.89,0,0,0,1.15-.34l.72.8a2.73,2.73,0,0,1-1.89.66,2.24,2.24,0,0,1-2.49-2.36,2.19,2.19,0,0,1,2.35-2.28c1.51,0,2.49.94,2.21,2.75Zm2.1-.94c0-.49-.52-.71-1.06-.71a1,1,0,0,0-1,.71Z" style="fill:#63459b"/><path d="M70.37,111.94l.1.49a1.35,1.35,0,0,1,1.18-.6,1.58,1.58,0,0,1,1.09.41l-.54,1a1.2,1.2,0,0,0-.71-.23,1,1,0,0,0-1,1v2.3H69.17v-4.42Z" style="fill:#63459b"/><path d="M75.51,115l.52-1.46.64-1.62h1.45l-1.9,4.45H74.8l-1.89-4.45h1.45l.63,1.62Z" style="fill:#63459b"/><path d="M80.26,110.76a.74.74,0,0,1-1.47,0A.74.74,0,0,1,80.26,110.76Zm-1.38,1.16v4.44h1.29v-4.44Z" style="fill:#63459b"/><path d="M85.33,115.77a2.42,2.42,0,0,1-1.73.69,2.2,2.2,0,0,1-2.42-2.31,2.27,2.27,0,0,1,2.41-2.32,2.06,2.06,0,0,1,1.6.61l-.71.82a1.32,1.32,0,0,0-.84-.26,1.1,1.1,0,0,0-1.16,1.15,1.08,1.08,0,0,0,1.14,1.11,1.35,1.35,0,0,0,.89-.33Z" style="fill:#63459b"/><path d="M87.1,114.57c.06.43.47.77,1.2.77a1.91,1.91,0,0,0,1.15-.34l.72.8a2.76,2.76,0,0,1-1.9.66,2.24,2.24,0,0,1-2.48-2.36,2.19,2.19,0,0,1,2.35-2.28c1.5,0,2.49.94,2.21,2.75Zm2.09-.94c0-.49-.51-.71-1-.71a1,1,0,0,0-1,.71Z" style="fill:#63459b"/><path d="M94.17,113.19a1.63,1.63,0,0,0-1-.33c-.43,0-.64.16-.64.37s.22.38.65.39c.87,0,1.92.2,1.93,1.42,0,.72-.53,1.49-1.94,1.49a3,3,0,0,1-2.07-.76l.55-.91a2.38,2.38,0,0,0,1.54.56c.38,0,.67-.15.67-.38s-.16-.38-.76-.39c-.82,0-1.85-.38-1.85-1.42s1-1.42,1.91-1.42a2.46,2.46,0,0,1,1.69.57Z" style="fill:#63459b"/><rect y="112.8" width="41.07" height="0.82" style="fill:#63459b"/><rect x="99.16" y="112.8" width="41.07" height="0.82" style="fill:#63459b"/></g></g></svg>